<svg xmlns="http://www.w3.org/2000/svg" viewBox="0 0 600 520"><rect width="600" height="520" rx="40" fill="#fff9fc"/><g stroke="#4a3b5d" stroke-width="7" stroke-linecap="round" stroke-linejoin="round"><path d="M163 350c-29-101 22-204 139-211 101-6 170 76 144 174-23 87-90 132-177 115-65-12-91-37-106-78z" fill="#fff"/><path d="M190 177l-14-74 73 52M382 158l54-55 9 82" fill="#fff"/><circle cx="257" cy="278" r="10" fill="#4a3b5d" stroke="none"/><circle cx="346" cy="278" r="10" fill="#4a3b5d" stroke="none"/><path d="M288 315q26 23 52 0" fill="none"/><path d="M419 350q48-136 65-234" fill="none"/><path d="M480 122c-49-20-77-67-47-94 26-23 58 7 55 39 13-31 50-42 65-13 17 33-28 68-73 68z" fill="#f59ab3"/><path d="M470 112q24 20 38 0" fill="none"/></g><circle cx="209" cy="320" r="22" fill="#f7afc2" opacity=".7"/><circle cx="393" cy="320" r="22" fill="#f7afc2" opacity=".7"/></svg>
